<svg width="160" height="76" viewBox="0 0 160 76" fill="none" xmlns="http://www.w3.org/2000/svg">
<path d="M47.7789 14.4686H10.8047C10.0024 14.4686 9.58175 13.8201 9.86557 13.0233L13.6366 1.44529C13.9204 0.645355 14.8009 0 15.6032 0H52.5774C53.3803 0 53.7997 0.647868 53.5165 1.44529L49.7461 13.0208C49.4623 13.8201 48.5818 14.4686 47.7789 14.4686Z" fill="#008CDB"/>
<path d="M98.6029 29.1077H47.3223C46.5225 29.1077 46.1031 28.4617 46.3863 27.6624L50.1472 16.0794C50.4298 15.2826 51.3071 14.6372 52.1069 14.6372H103.388C104.187 14.6372 104.606 15.2826 104.323 16.0794L100.563 27.6624C100.283 28.4617 99.4002 29.1077 98.6029 29.1077Z" fill="#FF6E3C"/>
<path d="M113.372 43.495H98.2606C97.4495 43.495 97.025 42.8402 97.3145 42.0327L101.09 30.4886C101.376 29.6811 102.266 29.0264 103.076 29.0264H118.189C118.999 29.0264 119.423 29.6811 119.135 30.4886L115.357 42.0327C115.072 42.8402 114.183 43.495 113.372 43.495Z" fill="#FFC50B"/>
<path d="M72.3428 60.6657H57.2284C56.4179 60.6657 55.9928 60.011 56.2823 59.2035L64.7339 32.9928C65.0202 32.1853 65.9102 31.5305 66.7206 31.5305H81.8325C82.6436 31.5305 83.0681 32.1853 82.7786 32.9928L74.327 59.2035C74.0407 60.011 73.1507 60.6657 72.3428 60.6657Z" fill="#CDD5DF"/>
<path d="M159.303 30.3512L129.789 57.8954L120.762 66.2378C120.53 66.4511 120.253 66.61 119.951 66.7029C119.649 66.7959 119.331 66.8205 119.018 66.7751C118.706 66.7297 118.408 66.6154 118.145 66.4405C117.883 66.2655 117.663 66.0344 117.502 65.764L113.104 58.4565C112.853 58.0409 112.752 57.5519 112.82 57.0714C112.887 56.591 113.118 56.1482 113.475 55.8173L123.143 46.815L140.929 30.2658C141.809 29.4822 143.177 28.8645 143.986 28.8871H159.427C160.237 28.9103 160.181 29.5638 159.303 30.3512Z" fill="#CDD5DF"/>
<path d="M137.085 75.5908L122.831 75.5788C122.067 75.6071 121.094 74.9467 120.657 74.1053L117.543 67.7366L112.929 58.1693C112.57 57.4253 112.818 56.4218 113.525 55.7645L122.421 47.4924C123.367 46.6127 124.715 46.7189 125.196 47.7167L129.503 57.2268L137.677 74.0186C138.114 74.86 137.849 75.5638 137.085 75.5908Z" fill="#CDD5DF"/>
<path d="M15.9899 45.5935H1.0281C0.225207 45.5935 -0.194848 44.9456 0.0883421 44.1482L8.45789 18.1958C8.74171 17.3958 9.62218 16.7505 10.4244 16.7505H25.3868C26.1891 16.7505 26.6098 17.3984 26.326 18.1958L17.957 44.1482C17.6732 44.9456 16.7927 45.5935 15.9899 45.5935Z" fill="#CDD5DF"/>
<path d="M103.278 74.4772H88.3161C87.5132 74.4772 87.0925 73.8287 87.3763 73.0319L95.7459 47.0796C96.0297 46.2803 96.9101 45.6343 97.7124 45.6343H112.675C113.477 45.6343 113.898 46.2828 113.614 47.0796L105.245 73.0319C104.961 73.8287 104.081 74.4772 103.278 74.4772Z" fill="#CDD5DF"/>
</svg>
