<svg width="78" height="37" viewBox="0 0 78 37" fill="none" xmlns="http://www.w3.org/2000/svg">
<path d="M23.2179 7.03085H5.25075C4.8609 7.03085 4.65648 6.71572 4.7944 6.32852L6.62688 0.702321C6.7648 0.313602 7.19265 0 7.5825 0H25.5497C25.9398 0 26.1436 0.314823 26.006 0.702321L24.1738 6.3273C24.0359 6.71572 23.6081 7.03085 23.2179 7.03085Z" fill="#008CDB"/>
<path d="M47.9149 14.1445H22.9957C22.6071 14.1445 22.4033 13.8306 22.5409 13.4422L24.3685 7.81351C24.5058 7.42632 24.9321 7.11272 25.3207 7.11272H50.2399C50.6285 7.11272 50.832 7.42632 50.6947 7.81351L48.8672 13.4422C48.7314 13.8306 48.3023 14.1445 47.9149 14.1445Z" fill="#FF6E3C"/>
<path d="M55.0921 21.1359H47.7487C47.3545 21.1359 47.1483 20.8177 47.289 20.4253L49.1236 14.8156C49.2627 14.4232 49.6949 14.1051 50.0887 14.1051H57.4324C57.8263 14.1051 58.0325 14.4232 57.8921 14.8156L56.0566 20.4253C55.9181 20.8177 55.4859 21.1359 55.0921 21.1359Z" fill="#FFC50B"/>
<path d="M35.1543 29.4798H27.8097C27.4159 29.4798 27.2093 29.1616 27.35 28.7692L31.4569 16.0325C31.596 15.6401 32.0285 15.3219 32.4223 15.3219H39.7658C40.1599 15.3219 40.3662 15.6401 40.2255 16.0325L36.1186 28.7692C35.9794 29.1616 35.547 29.4798 35.1543 29.4798Z" fill="#CDD5DF"/>
<path d="M77.4113 14.7487L63.0696 28.1335L58.6829 32.1874C58.5701 32.291 58.4355 32.3682 58.2889 32.4134C58.1423 32.4585 57.9875 32.4705 57.8357 32.4485C57.6839 32.4264 57.5389 32.3709 57.4114 32.2858C57.2839 32.2008 57.177 32.0885 57.0986 31.9571L54.9615 28.4061C54.8395 28.2042 54.7908 27.9666 54.8236 27.7331C54.8564 27.4996 54.9687 27.2845 55.1417 27.1236L59.8402 22.7491L68.4831 14.7072C68.9103 14.3264 69.5754 14.0263 69.9686 14.0373H77.4717C77.8655 14.0486 77.8382 14.3661 77.4113 14.7487Z" fill="#CDD5DF"/>
<path d="M66.615 36.7323L59.6884 36.7265C59.3173 36.7403 58.8444 36.4193 58.632 36.0104L57.1188 32.9157L54.8766 28.2666C54.7019 27.9051 54.8226 27.4174 55.1662 27.098L59.4892 23.0783C59.9489 22.6508 60.6036 22.7024 60.8378 23.1873L62.9304 27.8086L66.9025 35.9683C67.1149 36.3772 66.9862 36.7192 66.615 36.7323Z" fill="#CDD5DF"/>
<path d="M7.77006 22.1555H0.499593C0.109436 22.1555 -0.0946837 21.8407 0.0429287 21.4532L4.11 8.84191C4.24792 8.45319 4.67578 8.13959 5.06563 8.13959H12.3364C12.7263 8.13959 12.9307 8.45441 12.7928 8.84191L8.72599 21.4532C8.58807 21.8407 8.16022 22.1555 7.77006 22.1555Z" fill="#CDD5DF"/>
<path d="M50.1868 36.1912H42.9163C42.5262 36.1912 42.3218 35.8761 42.4597 35.4889L46.5267 22.8777C46.6647 22.4893 47.0925 22.1754 47.4824 22.1754H54.7531C55.143 22.1754 55.3474 22.4905 55.2095 22.8777L51.1427 35.4889C51.0048 35.8761 50.577 36.1912 50.1868 36.1912Z" fill="#CDD5DF"/>
</svg>
